<?xml version="1.0" encoding="utf-8"?>
<!-- Generator: Adobe Illustrator 25.3.1, SVG Export Plug-In . SVG Version: 6.00 Build 0)  -->
<svg version="1.1" id="圖層_1" xmlns="http://www.w3.org/2000/svg" xmlns:xlink="http://www.w3.org/1999/xlink" x="0px" y="0px"
	 viewBox="0 0 51 52" style="enable-background:new 0 0 51 52;" xml:space="preserve">
<g>
	<g>
		<path d="M25.5,51.34C11.53,51.34,0.16,39.97,0.16,26S11.53,0.66,25.5,0.66S50.84,12.03,50.84,26S39.47,51.34,25.5,51.34z
			 M25.5,3.49C13.09,3.49,2.99,13.59,2.99,26s10.1,22.51,22.51,22.51S48.01,38.41,48.01,26S37.91,3.49,25.5,3.49z"/>
	</g>
	<g>
		<g>
			<path d="M25.5,47.19c-8.41,0-16.02-4.97-19.41-12.67l2.89-1.27c2.88,6.55,9.36,10.79,16.52,10.79c9.41,0,17.17-7.25,17.97-16.46
				h-5.31v-3.15h8.53V26C46.69,37.68,37.18,47.19,25.5,47.19z"/>
		</g>
	</g>
	<g>
		<g>
			<polygon points="38.99,21.87 10.43,21.87 10.43,13.02 38.99,13.02 38.99,16.17 13.59,16.17 13.59,18.72 38.99,18.72 			"/>
		</g>
	</g>
</g>
</svg>
