<?xml version="1.0" encoding="utf-8"?>
<!-- Generator: Adobe Illustrator 25.3.1, SVG Export Plug-In . SVG Version: 6.00 Build 0)  -->
<svg version="1.1" id="圖層_1" xmlns="http://www.w3.org/2000/svg" xmlns:xlink="http://www.w3.org/1999/xlink" x="0px" y="0px"
	 viewBox="0 0 54 53" style="enable-background:new 0 0 54 53;" xml:space="preserve">
<g>
	<g>
		<path d="M27,52.98C12.4,52.98,0.52,41.1,0.52,26.5S12.4,0.02,27,0.02S53.48,11.9,53.48,26.5S41.6,52.98,27,52.98z M27,2.98
			C14.03,2.98,3.48,13.53,3.48,26.5c0,12.97,10.55,23.52,23.52,23.52c12.97,0,23.52-10.55,23.52-23.52
			C50.52,13.53,39.97,2.98,27,2.98z"/>
	</g>
	<g>
		<path d="M27,47.69c-8.41,0-16.02-4.97-19.41-12.67l2.89-1.27C13.36,40.3,19.84,44.54,27,44.54c9.41,0,17.17-7.25,17.97-16.46
			h-5.31v-3.15h8.53v1.58C48.19,38.18,38.68,47.69,27,47.69z"/>
	</g>
	<g>
		<polygon points="40.49,22.37 11.93,22.37 11.93,13.52 40.49,13.52 40.49,16.67 15.08,16.67 15.08,19.22 40.49,19.22 		"/>
	</g>
</g>
</svg>
