<?xml version="1.0" encoding="utf-8"?>
<!-- Generator: Adobe Illustrator 25.3.1, SVG Export Plug-In . SVG Version: 6.00 Build 0)  -->
<svg version="1.1" id="圖層_1" xmlns="http://www.w3.org/2000/svg" xmlns:xlink="http://www.w3.org/1999/xlink" x="0px" y="0px"
	 viewBox="0 0 61.2 61.18" style="enable-background:new 0 0 61.2 61.18;" xml:space="preserve">
<g>
	<path d="M30.6,61.09c-16.82,0-30.5-13.68-30.5-30.5s13.68-30.5,30.5-30.5s30.5,13.68,30.5,30.5S47.42,61.09,30.6,61.09z M30.6,1.09
		c-16.27,0-29.5,13.23-29.5,29.5s13.23,29.5,29.5,29.5s29.5-13.23,29.5-29.5S46.87,1.09,30.6,1.09z"/>
	<path d="M30.6,57.16c-10.54,0-20.09-6.24-24.34-15.89l3.62-1.59c3.61,8.22,11.74,13.53,20.71,13.53c11.8,0,21.53-9.09,22.53-20.64
		h-6.66v-3.96h10.7v1.98C57.17,45.24,45.25,57.16,30.6,57.16z"/>
	<polygon points="47.52,25.42 11.7,25.42 11.7,14.31 47.52,14.31 47.52,18.27 15.66,18.27 15.66,21.46 47.52,21.46 	"/>
</g>
</svg>
